<?xml version="1.0" encoding="utf-8"?>
<!-- Generator: Adobe Illustrator 25.2.3, SVG Export Plug-In . SVG Version: 6.00 Build 0)  -->
<svg version="1.1" id="Calque_1" xmlns="http://www.w3.org/2000/svg" xmlns:xlink="http://www.w3.org/1999/xlink" x="0px" y="0px"
	 viewBox="0 0 200 200" style="enable-background:new 0 0 200 200;" xml:space="preserve">
<style type="text/css">
	.st0{opacity:0.4;fill:#808181;}
	.st1{fill:#FFFFFF;}
	.st2{opacity:0.7;fill:#A7A6A6;}
	.st3{fill:#FCD7B0;}
	.st4{fill:#F6CEA6;}
	.st5{fill:#FDD8AE;}
	.st6{fill:#FEE1BA;}
	.st7{fill:#425633;}
	.st8{fill:#4D603D;}
	.st9{fill:#DC843C;}
	.st10{fill:#FFF0B4;}
	.st11{fill:#A01915;}
	.st12{fill:#066579;}
	.st13{fill:#F0DDAA;}
	.st14{fill:#E8471E;}
	.st15{opacity:0.36;fill:#9A9999;}
	.st16{fill:#783410;}
	.st17{opacity:0.85;fill:#F2F2F2;}
</style>
<g>
	<path class="st0" d="M100.1,13.6c-47.1,0-85.4,38.2-85.4,85.4c0,47.1,38.2,85.4,85.4,85.4c47.1,0,85.4-38.2,85.4-85.4
		C185.4,51.9,147.2,13.6,100.1,13.6z"/>
</g>
<g>
	<path class="st0" d="M100.1,13.6C54,13.6,16.6,51,16.6,97c0,46.1,37.4,83.4,83.4,83.4c46.1,0,83.4-37.4,83.4-83.4
		C183.5,51,146.1,13.6,100.1,13.6z"/>
	<path class="st1" d="M100.1,9.7C51.9,9.7,12.7,48.9,12.7,97c0,48.1,39.2,87.3,87.3,87.3c48.1,0,87.3-39.2,87.3-87.3
		C187.4,48.9,148.2,9.7,100.1,9.7z M100.1,176.6c-43.9,0-79.6-35.7-79.6-79.6c0-43.9,35.7-79.6,79.6-79.6
		c43.9,0,79.6,35.7,79.6,79.6C179.6,140.9,143.9,176.6,100.1,176.6z"/>
</g>
<g>
	<path class="st2" d="M153.6,140c0-0.1,0.1-0.1,0.1-0.2c0,0,0,0,0,0c1.4-2.2,2.2-5,2.2-7.9c0.1-4.1-1.9-7.5-5.9-8.1
		c-0.6-0.1-1.1-0.1-1.6-0.1c-0.6-0.8-1.3-1.5-2.1-2l-14.9-9.1l-0.2-0.2l0,0l-2.8-1.7l-0.2,0.2c-0.4-1.2-0.7-2.1-0.9-2.7v-4.9
		c0.1-0.1,0.2-0.2,0.3-0.3c0.1-0.1,0.2-0.2,0.2-0.3c0.4-0.5,0.8-1,1.1-1.5c0.1-0.2,0.2-0.3,0.3-0.5c0.3-0.5,0.7-1,1-1.6
		c0.1-0.2,0.2-0.4,0.3-0.7c0.3-0.5,0.5-1.1,0.8-1.6c0.1-0.3,0.2-0.6,0.3-0.9c0.2-0.5,0.4-1.1,0.6-1.6c0.1-0.4,0.2-0.7,0.3-1.1
		c0.2-0.5,0.3-1.1,0.5-1.6c0.1-0.4,0.2-0.9,0.3-1.3l0,0.7c0,0,3,3.2,4.5-4.5c1.4-7.3,1.5-11.6-0.4-13.1c9.8-21.5-8.5-31.8-14.1-26.8
		c0,0-3.3-3.6-11.2-3.6c-22,0-24.1,20.5-20.3,32.2c-0.7,2.2-0.4,6,0.6,11.4c1.3,6.8,3.8,5.1,4.4,4.6c1.3,5.2,3.3,9.4,6,12.5v3.9
		c0,0-0.3,1.5-1.1,3.5l-0.2-0.2l-8.7,5.3c-0.3-3.1-1.4-5.4-2.7-5.4h-1.4v-1.2c-1,0-1-6,0-6v-1.2H90c1.4,0,2.6-1.4,2.6-3.2
		c0-1.8-1.2-3.2-2.6-3.2H60.3v0.8c0.9,0,0.9,4.7,0,4.7v0.8h-7.3c-2.4,0-4.3,1.9-4.3,4.2c0,2.3,1.9,4.2,4.3,4.2H57v0.9v13.1v0.9h-1.8
		c-1.9,0-3.4,1.8-3.4,4.1c0,2.3,1.5,4.1,3.4,4.1h-6.7c-3.3,0-5.9,2.6-5.9,5.8c0,3.2,2.7,5.8,5.9,5.8h26.9h22.1h17.5h0h39.6l-1.3-4.9
		C153.4,140.3,153.5,140.2,153.6,140z"/>
	<g>
		<g>
			<g>
				<path class="st3" d="M131.4,119.9c-5.2-3-7.3-11.9-7.4-12.4v-6.2L99.6,102v5.4c0,0-2.1,9.4-7.5,12.5c-2.8,1.7,2.9,7.1,8.8,11.9
					l2.3,5.2l8.6,8.4l6.6-8.5l2.2-3.5C127.2,128.3,134.6,121.8,131.4,119.9z"/>
				<path class="st3" d="M93.7,90.9c0,0-3,3.2-4.5-4.5c-1.6-8.2-1.5-12.7,1.3-13.6c1.8-0.6,2.3,0.9,2.3,0.9L93.7,90.9z"/>
				<path class="st3" d="M99.9,102.5v5.8c0,2.1,0.9,4.1,2.6,5.4l5.1,4.1c2.6,2.1,6.3,2.1,8.9,0l5.1-4.2c1.7-1.3,2.6-3.3,2.6-5.5
					v-6.3L99.9,102.5z"/>
				<path class="st4" d="M99.9,106.7c3.3,3.6,7.4,5.6,11.9,5.6c4.8,0,9-2.1,12.4-6.1v-4.3l-24.3,0.6V106.7z"/>
				<path class="st5" d="M111.8,109.4c11.1,0,19.6-11.6,19.6-30.9c0-24-7-29.5-19.6-29.5c-12.6,0-19.6,5.6-19.6,29.5
					C92.2,97.8,100.7,109.4,111.8,109.4z"/>
				<path class="st3" d="M130.1,90.9c0,0,3,3.2,4.5-4.5c1.6-8.2,1.5-12.7-1.3-13.6c-1.8-0.6-2.3,0.9-2.3,0.9L130.1,90.9z"/>
				<path class="st6" d="M112,49v60.4c11-0.2,19.3-11.7,19.3-30.8C131.4,54.8,124.4,49.1,112,49z"/>
				<path class="st7" d="M151.4,145.4l-5.1-19.4c-0.5-1.8-1.6-3.3-3.1-4.2l-17.9-11L111.8,126l-13.5-15.4l-17.9,11
					c-1.5,1-2.7,2.5-3.1,4.2l-5.1,19.4h39.6h0H151.4z"/>
				<polygon class="st8" points="111.8,132.5 94.6,113.4 95.6,112.4 111.8,130.5 128.1,112.4 129.1,113.3 				"/>
			</g>
			<path class="st9" d="M93.6,82.7c-8.1-3.9-13.8-39.8,15.3-39.8c7.9,0,11.2,3.6,11.2,3.6c6.2-5.6,27.8,7.6,10.1,33.9
				c0,0,1.7-12.3-4.8-17.4c-4.7-3.7-5.4-6.3-5.4-6.3s-3.2,5.6-12.4,7.9C98.3,67,95.9,73,93.6,82.7z"/>
		</g>
		<g>
			<path class="st10" d="M94.3,143.6H67.6v-8.2h26.7C92.9,135.4,92.9,143.6,94.3,143.6z"/>
			<path class="st10" d="M71.7,139.5c0,2.3-1.8,4.1-4.1,4.1c-2.3,0-4.1-1.8-4.1-4.1c0-2.3,1.8-4.1,4.1-4.1
				C69.8,135.4,71.7,137.3,71.7,139.5z"/>
		</g>
		<g>
			<path class="st11" d="M51.2,139.5c0,3.2-2.7,5.8-5.9,5.8c-3.3,0-5.9-2.6-5.9-5.8c0-3.2,2.7-5.8,5.9-5.8
				C48.6,133.7,51.2,136.3,51.2,139.5z"/>
			<path class="st11" d="M94.3,133.7h-49v11.6h49v-1.7H67.6c-2.3,0-4.1-1.8-4.1-4.1c0-2.3,1.8-4.1,4.1-4.1h26.7V133.7z"/>
		</g>
		<path class="st12" d="M55.3,129.6c0,2.3-1.5,4.1-3.4,4.1c-1.9,0-3.4-1.9-3.4-4.1c0-2.3,1.5-4.1,3.4-4.1
			C53.8,125.4,55.3,127.3,55.3,129.6z"/>
		<g>
			<path class="st10" d="M90.2,132.6H52v-6.1h38.2C89.1,126.5,89.1,132.6,90.2,132.6z"/>
			<path class="st10" d="M54,129.6c0,1.7-0.9,3.1-2,3.1c-1.1,0-2-1.4-2-3.1c0-1.7,0.9-3.1,2-3.1C53.1,126.5,54,127.9,54,129.6z"/>
		</g>
		<g>
			<rect x="52" y="132.6" class="st12" width="38.2" height="1.1"/>
			<rect x="52" y="125.4" class="st12" width="38.2" height="1.1"/>
		</g>
		<rect x="53.8" y="110.6" class="st11" width="33.2" height="14.9"/>
		<path class="st11" d="M89.8,118c0,4.1-1.3,7.4-2.8,7.4c-1.5,0-2.8-3.3-2.8-7.4c0-4.1,1.3-7.4,2.8-7.4
			C88.5,110.6,89.8,113.9,89.8,118z"/>
		<rect x="53.8" y="111.4" class="st10" width="33.2" height="13.1"/>
		<path class="st10" d="M88.7,118c0,3.6-0.8,6.6-1.7,6.6c-0.9,0-1.7-2.9-1.7-6.6c0-3.6,0.8-6.6,1.7-6.6
			C87.9,111.4,88.7,114.4,88.7,118z"/>
		<g>
			<path class="st13" d="M53.8,112.2c0,0,2.1-0.1,5.3-0.2c1.6,0,3.5-0.1,5.4-0.1c2,0,4.1,0,6.2,0c2.1,0,4.2,0,6.2,0
				c2,0,3.8,0.1,5.4,0.1c3.2,0.1,5.3,0.2,5.3,0.2s-2.1,0.1-5.3,0.2c-1.6,0-3.4,0.1-5.4,0.1c-2,0-4.1,0-6.2,0c-2.1,0-4.2,0-6.2,0
				c-2,0-3.8-0.1-5.4-0.1C55.9,112.4,53.8,112.2,53.8,112.2z"/>
			<path class="st13" d="M53.8,113.7c0,0,2.1-0.1,5.3-0.2c1.6,0,3.5-0.1,5.4-0.1c2,0,4.1,0,6.2,0c2.1,0,4.2,0,6.2,0
				c2,0,3.8,0.1,5.4,0.1c3.2,0.1,5.3,0.2,5.3,0.2s-2.1,0.1-5.3,0.2c-1.6,0-3.4,0.1-5.4,0.1c-2,0-4.1,0-6.2,0c-2.1,0-4.2,0-6.2,0
				c-2,0-3.8-0.1-5.4-0.1C55.9,113.8,53.8,113.7,53.8,113.7z"/>
			<path class="st13" d="M53.8,115.1c0,0,2.1-0.1,5.3-0.2c1.6,0,3.5-0.1,5.4-0.1c2,0,4.1,0,6.2,0c2.1,0,4.2,0,6.2,0
				c2,0,3.8,0.1,5.4,0.1c3.2,0.1,5.3,0.2,5.3,0.2s-2.1,0.1-5.3,0.2c-1.6,0-3.4,0.1-5.4,0.1c-2,0-4.1,0-6.2,0c-2.1,0-4.2,0-6.2,0
				c-2,0-3.8-0.1-5.4-0.1C55.9,115.2,53.8,115.1,53.8,115.1z"/>
			<path class="st13" d="M53.8,116.5c0,0,2.1-0.1,5.3-0.2c1.6,0,3.5-0.1,5.4-0.1c2,0,4.1,0,6.2,0c2.1,0,4.2,0,6.2,0
				c2,0,3.8,0.1,5.4,0.1c3.2,0.1,5.3,0.2,5.3,0.2s-2.1,0.1-5.3,0.2c-1.6,0-3.4,0.1-5.4,0.1c-2,0-4.1,0-6.2,0c-2.1,0-4.2,0-6.2,0
				c-2,0-3.8-0.1-5.4-0.1C55.9,116.6,53.8,116.5,53.8,116.5z"/>
			<path class="st13" d="M53.8,117.9c0,0,2.1-0.1,5.3-0.2c1.6,0,3.5-0.1,5.4-0.1c2,0,4.1,0,6.2,0c2.1,0,4.2,0,6.2,0
				c2,0,3.8,0.1,5.4,0.1c3.2,0.1,5.3,0.2,5.3,0.2s-2.1,0.1-5.3,0.2c-1.6,0-3.4,0.1-5.4,0.1c-2,0-4.1,0-6.2,0c-2.1,0-4.2,0-6.2,0
				c-2,0-3.8-0.1-5.4-0.1C55.9,118.1,53.8,117.9,53.8,117.9z"/>
			<path class="st13" d="M53.8,119.4c0,0,2.1-0.1,5.3-0.2c1.6,0,3.5-0.1,5.4-0.1c2,0,4.1,0,6.2,0c2.1,0,4.2,0,6.2,0
				c2,0,3.8,0.1,5.4,0.1c3.2,0.1,5.3,0.2,5.3,0.2s-2.1,0.1-5.3,0.2c-1.6,0-3.4,0.1-5.4,0.1c-2,0-4.1,0-6.2,0c-2.1,0-4.2,0-6.2,0
				c-2,0-3.8-0.1-5.4-0.1C55.9,119.5,53.8,119.4,53.8,119.4z"/>
			<path class="st13" d="M53.8,120.8c0,0,2.1-0.1,5.3-0.2c1.6,0,3.5-0.1,5.4-0.1c2,0,4.1,0,6.2-0.1c2.1,0,4.2,0,6.2,0.1
				c2,0,3.8,0.1,5.4,0.1c3.2,0.1,5.3,0.2,5.3,0.2s-2.1,0.1-5.3,0.2c-1.6,0-3.4,0.1-5.4,0.1c-2,0-4.1,0-6.2,0c-2.1,0-4.2,0-6.2,0
				c-2,0-3.8-0.1-5.4-0.1C55.9,120.9,53.8,120.8,53.8,120.8z"/>
			<path class="st13" d="M53.8,122.2c0,0,2.1-0.1,5.3-0.2c1.6,0,3.5-0.1,5.4-0.1c2,0,4.1,0,6.2,0c2.1,0,4.2,0,6.2,0
				c2,0,3.8,0.1,5.4,0.1c3.2,0.1,5.3,0.2,5.3,0.2s-2.1,0.1-5.3,0.2c-1.6,0-3.4,0.1-5.4,0.1c-2,0-4.1,0-6.2,0c-2.1,0-4.2,0-6.2,0
				c-2,0-3.8-0.1-5.4-0.1C55.9,122.3,53.8,122.2,53.8,122.2z"/>
			<path class="st13" d="M53.8,123.7c0,0,2.1-0.1,5.3-0.2c1.6,0,3.5-0.1,5.4-0.1c2,0,4.1,0,6.2,0c2.1,0,4.2,0,6.2,0
				c2,0,3.8,0.1,5.4,0.1c3.2,0.1,5.3,0.2,5.3,0.2s-2.1,0.1-5.3,0.2c-1.6,0-3.4,0.1-5.4,0.1c-2,0-4.1,0-6.2,0c-2.1,0-4.2,0-6.2,0
				c-2,0-3.8-0.1-5.4-0.1C55.9,123.8,53.8,123.7,53.8,123.7z"/>
		</g>
		<g>
			<path class="st10" d="M85.5,109.3H66.1v-6h19.4C84.5,103.4,84.5,109.3,85.5,109.3z"/>
			<path class="st10" d="M69.1,106.3c0,1.7-1.3,3-3,3c-1.6,0-3-1.3-3-3c0-1.7,1.3-3,3-3C67.7,103.4,69.1,104.7,69.1,106.3z"/>
		</g>
		<g>
			<path class="st12" d="M54.2,106.3c0,2.3-1.9,4.2-4.3,4.2c-2.4,0-4.3-1.9-4.3-4.2c0-2.3,1.9-4.2,4.3-4.2
				C52.3,102.1,54.2,104,54.2,106.3z"/>
			<path class="st12" d="M85.5,102.1H49.9v8.5h35.6v-1.2H66.1c-1.6,0-3-1.3-3-3c0-1.7,1.3-3,3-3h19.4V102.1z"/>
		</g>
		<path class="st12" d="M55.3,129.6c0,2.3-1.5,4.1-3.4,4.1c-1.9,0-3.4-1.9-3.4-4.1c0-2.3,1.5-4.1,3.4-4.1
			C53.8,125.4,55.3,127.3,55.3,129.6z"/>
		<g>
			<path class="st10" d="M90.2,132.6H52v-6.1h38.2C89.1,126.5,89.1,132.6,90.2,132.6z"/>
			<path class="st10" d="M54,129.6c0,1.7-0.9,3.1-2,3.1c-1.1,0-2-1.4-2-3.1c0-1.7,0.9-3.1,2-3.1C53.1,126.5,54,127.9,54,129.6z"/>
		</g>
		<g>
			<rect x="57.2" y="101.3" class="st11" width="29.7" height="0.8"/>
			<rect x="57.2" y="95.7" class="st11" width="29.7" height="0.8"/>
		</g>
		<path class="st11" d="M84.3,98.9c0,1.8,1.2,3.2,2.6,3.2c1.4,0,2.6-1.4,2.6-3.2c0-1.8-1.2-3.2-2.6-3.2
			C85.5,95.7,84.3,97.1,84.3,98.9z"/>
		<g>
			<path class="st10" d="M57.2,101.3h29.7v-4.7H57.2C58.1,96.5,58.1,101.3,57.2,101.3z"/>
			<path class="st10" d="M85.3,98.9c0,1.3,0.7,2.4,1.6,2.4c0.9,0,1.6-1.1,1.6-2.4c0-1.3-0.7-2.4-1.6-2.4
				C86,96.5,85.3,97.6,85.3,98.9z"/>
		</g>
		<g>
			<path class="st14" d="M138.4,124.3c-4-0.5-8.4-1.7-10.6,2.9c-1,2.6-1,5.7-0.2,8.3c1.9,7.7,7.1,9.6,12.8,9.6
				c7.8,0,12.3-6.3,12.3-13.3c0.1-4.1-1.9-7.5-5.9-8.1C143.7,123.3,141.8,124.4,138.4,124.3L138.4,124.3z"/>
			<path class="st15" d="M139.4,126.9c-3.8,0-6.5-1.5-6.2-2.1c0.3-0.7,3.1,0.1,3.6,0.2c0.9,0.1,1.6,0.3,2.5,0.3c0.9,0,0.8,0,1.7-0.2
				c0.7-0.1,1.6-0.7,2.2-0.2C143.9,125.4,142.3,126.9,139.4,126.9z"/>
			<path class="st16" d="M139.5,121.5c-0.2,0.9-0.4,1.7-0.5,2.5c0,0.8,0,1.7,0.1,2.5c-0.2,0-0.4,0-0.6-0.1c-0.3-1.9,0-4.1-0.2-5.9
				c0.1-0.5,0.4-0.6,0.8-0.5C139.8,120.3,139.6,121,139.5,121.5z"/>
			<path class="st17" d="M150.3,128c0,1-1.3,0.8-1.8,0.6c-0.8-0.3-3.4-0.7-3.9-1.4c-0.8-0.9,0.6-1.3,1.3-2.2c0.7-1,3,0.5,3.7,1.5
				C150.1,127.3,150.3,127.4,150.3,128z"/>
			<path class="st15" d="M150.6,139.8c-2,3.2-5.5,5.4-10.1,5.4c-5.8,0-10.9-1.9-12.8-9.6c-0.8-2.6-0.8-5.8,0.2-8.3
				c0.6-1.4,1.4-2.2,2.4-2.7c-0.2,0.6-0.3,1.1-0.4,1.6c-0.2,1.6-0.1,3.2,0.2,4.8c0.5,2.9,2.3,5.8,4.5,7.7
				C138.7,142.1,145.4,142.2,150.6,139.8z"/>
		</g>
		<g>
			<path class="st11" d="M51.2,139.5c0,3.2-2.7,5.8-5.9,5.8c-3.3,0-5.9-2.6-5.9-5.8c0-3.2,2.7-5.8,5.9-5.8
				C48.6,133.7,51.2,136.3,51.2,139.5z"/>
			<path class="st11" d="M94.3,133.7h-49v11.6h49v-1.7H67.6c-2.3,0-4.1-1.8-4.1-4.1c0-2.3,1.8-4.1,4.1-4.1h26.7V133.7z"/>
		</g>
	</g>
</g>
</svg>
