<?xml version="1.0" encoding="utf-8"?>
<!-- Generator: Adobe Illustrator 25.2.3, SVG Export Plug-In . SVG Version: 6.00 Build 0)  -->
<svg version="1.1" id="Calque_1" xmlns="http://www.w3.org/2000/svg" xmlns:xlink="http://www.w3.org/1999/xlink" x="0px" y="0px"
	 viewBox="0 0 100 100" style="enable-background:new 0 0 100 100;" xml:space="preserve">
<style type="text/css">
	.st0{opacity:0.4;fill:#818282;enable-background:new    ;}
	.st1{fill:#FFFFFF;}
	.st2{fill:#008D36;stroke:#FFFFFF;stroke-miterlimit:10;}
	.st3{fill:#E30613;stroke:#FFFFFF;stroke-miterlimit:10;}
	.st4{fill:#1D71B8;stroke:#FFFFFF;stroke-miterlimit:10;}
</style>
<g>
	<path class="st0" d="M50.1,6.2C25.4,6.2,5.3,26.3,5.3,51c0,24.7,20,44.8,44.8,44.8c24.7,0,44.8-20,44.8-44.8
		C94.8,26.3,74.7,6.2,50.1,6.2z"/>
</g>
<g>
	<path class="st0" d="M50.1,6.2C25.9,6.2,6.3,25.9,6.3,50c0,24.2,19.6,43.7,43.7,43.7c24.2,0,43.7-19.6,43.7-43.7
		C93.8,25.9,74.2,6.2,50.1,6.2z"/>
	<path class="st1" d="M50.1,4.2C24.8,4.2,4.2,24.8,4.2,50S24.8,95.8,50,95.8S95.8,75.2,95.8,50C95.8,24.8,75.3,4.2,50.1,4.2z
		 M50.1,91.7C27,91.7,8.3,73,8.3,50S27,8.2,50.1,8.2S91.8,27,91.8,50C91.7,73,73,91.7,50.1,91.7z"/>
</g>
<polygon class="st2" points="65.7,40.5 52.9,49.4 54.1,65 68.2,71.7 81.1,62.8 79.9,47.2 "/>
<polygon class="st3" points="45.6,18.8 32.7,27.7 34,43.3 48.1,50 61,41.1 59.7,25.5 "/>
<polygon class="st4" points="36.5,47.1 23.6,55.9 24.8,71.5 39,78.3 51.9,69.4 50.6,53.8 "/>
</svg>
