<?xml version="1.0" encoding="utf-8"?>
<!-- Generator: Adobe Illustrator 25.2.3, SVG Export Plug-In . SVG Version: 6.00 Build 0)  -->
<svg version="1.1" id="Calque_1" xmlns="http://www.w3.org/2000/svg" xmlns:xlink="http://www.w3.org/1999/xlink" x="0px" y="0px"
	 viewBox="0 0 20 20" style="enable-background:new 0 0 20 20;" xml:space="preserve">
<style type="text/css">
	.st0{fill:#E30613;}
</style>
<g>
	<path class="st0" d="M16.4,1.4l2,2C19.1,4,19.2,5,18.6,5.5l-4.5,4.5l4.5,4.5c0.6,0.5,0.5,1.4-0.1,2.1l-2,2
		c-0.6,0.6-1.6,0.7-2.1,0.1l-4.5-4.5l-4.5,4.5c-0.5,0.6-1.4,0.5-2.1-0.1l-2-2c-0.6-0.6-0.7-1.6-0.1-2.1l4.5-4.5L1.1,5.5
		C0.5,5,0.6,4,1.3,3.4l2-2c0.6-0.6,1.6-0.7,2.1-0.2l4.5,4.5l4.5-4.5C14.9,0.7,15.9,0.7,16.4,1.4L16.4,1.4z"/>
</g>
</svg>
