<?xml version="1.0" encoding="utf-8"?>
<!-- Generator: Adobe Illustrator 25.2.3, SVG Export Plug-In . SVG Version: 6.00 Build 0)  -->
<svg version="1.1" id="Calque_1" xmlns="http://www.w3.org/2000/svg" xmlns:xlink="http://www.w3.org/1999/xlink" x="0px" y="0px"
	 viewBox="0 0 200 200" style="enable-background:new 0 0 200 200;" xml:space="preserve">
<style type="text/css">
	.st0{opacity:0.4;fill:#808181;}
	.st1{fill:#FFFFFF;}
	.st2{fill:#FFDD32;}
	.st3{fill:#4DBBEA;}
	.st4{fill:#E94793;}
</style>
<g>
	<path class="st0" d="M100.1,13.6c-47.1,0-85.4,38.2-85.4,85.4c0,47.1,38.2,85.4,85.4,85.4c47.1,0,85.4-38.2,85.4-85.4
		C185.4,51.9,147.2,13.6,100.1,13.6z"/>
</g>
<g>
	<path class="st0" d="M100.1,13.6C54,13.6,16.6,51,16.6,97c0,46.1,37.4,83.4,83.4,83.4c46.1,0,83.4-37.4,83.4-83.4
		C183.5,51,146.1,13.6,100.1,13.6z"/>
	<path class="st1" d="M100.1,9.7C51.9,9.7,12.7,48.9,12.7,97c0,48.1,39.2,87.3,87.3,87.3c48.1,0,87.3-39.2,87.3-87.3
		C187.4,48.9,148.2,9.7,100.1,9.7z M100.1,176.6c-43.9,0-79.6-35.7-79.6-79.6c0-43.9,35.7-79.6,79.6-79.6
		c43.9,0,79.6,35.7,79.6,79.6C179.6,140.9,143.9,176.6,100.1,176.6z"/>
</g>
<g>
	<path class="st2" d="M73.4,136.7c-0.7-0.9-0.9-2.2-0.3-3.3c0.8-1.5,2.6-2.1,4.1-1.3c1.5,0.8,2.1,2.6,1.3,4.1
		c-0.6,1.1-1.7,1.7-2.9,1.6l-6.2,12L84,137.6L80.4,126l-11.6,3.6l-1.6,19L73.4,136.7z"/>
	<g>
		<g>
			<path class="st3" d="M83.5,127.9l-6.4-3.3c-0.9-0.5-2-0.1-2.5,0.8v0c-0.5,0.9-0.1,2,0.8,2.5l6.4,3.3c0.9,0.5,2,0.1,2.5-0.8l0,0
				C84.7,129.4,84.4,128.3,83.5,127.9z"/>
			<path class="st3" d="M84.9,125.1l-6.4-3.3c-0.9-0.5-2-0.1-2.5,0.8l0,0c-0.5,0.9-0.1,2,0.8,2.5l6.4,3.3c0.9,0.5,2,0.1,2.5-0.8v0
				C86.2,126.7,85.8,125.6,84.9,125.1z"/>
		</g>
	</g>
	<path class="st4" d="M100.6,103.2l5.4,4.7c4.4-5.1,8.8-11.1,12.8-17.4l-7-6.5l8.6,4c5.5-8.8,10.4-17.9,14.3-25.6l-6.6-1.6l8.4-2
		c4.2-8.6,6.8-14.5,6.8-14.5s-22.1,7.4-40.8,19.5l1.4,5.4l-3.6-3.9c-3.9,2.7-7.6,5.5-10.9,8.6c-2.1,2-3.9,4.1-5.4,6.2L92,83l-10.4,1
		c-8.7,16.8-1.3,35.3-1.3,35.3l1,0.5c2.8-7.9,12.9-31.4,31.8-47.4C96.9,89.9,88.3,112,84.7,121.6l1.2,0.6c6-1.1,12.3-5.8,18.4-12.5
		L100.6,103.2z"/>
	<g>
		<path class="st1" d="M143.1,44.3c0,0-2.5,5.9-6.8,14.5l-8.4,2l6.6,1.6c-3.8,7.6-8.8,16.7-14.3,25.6l-8.6-4l7,6.5
			c-4,6.3-8.4,12.3-12.8,17.4l-5.4-4.7l3.8,6.5c-6.1,6.7-12.4,11.4-18.4,12.5l-1.2-0.6c3.5-9.6,12.2-31.7,28.3-49.2
			c-19,16-29,39.4-31.8,47.4l-1-0.5c0,0-7.4-18.4,1.3-35.3L92,83l-8.1-2.9c1.5-2.1,3.2-4.2,5.4-6.2c3.3-3,7-5.9,10.9-8.6l3.6,3.9
			l-1.4-5.4C121,51.7,143.1,44.3,143.1,44.3 M148.2,39.6l-6,2c-0.9,0.3-22.7,7.7-41.4,19.8l-0.2,0.2l0,0l-0.9,0.6l-0.6,0.4l0,0
			L98.5,63c-4.3,2.9-8,5.9-11.2,8.8c-2.2,2-4.1,4.3-5.7,6.7l-2.1,3l0.1,0.1L79,82.7c-9.2,17.8-1.7,36.8-1.4,37.6l0.4,1l0.9,0.5
			l1,0.5l2.9,1.5l0.6,0.3l1.2,0.6l0.9,0.4l1-0.2c6.1-1.1,12.6-5.4,19.7-13.1l0,0l1.1-1.2l0.6-0.6l0,0l0.3-0.3
			c4.2-4.8,8.6-10.8,13.1-17.8l0.2-0.4l0,0l0.5-0.8l0.6-0.9l0,0l0.3-0.5c4.8-7.6,9.6-16.3,14.4-25.8l1.6-3.2l0,0l0.2-0.5
			c4.2-8.6,6.8-14.6,6.8-14.7L148.2,39.6L148.2,39.6z M143.1,47.1L143.1,47.1L143.1,47.1L143.1,47.1z"/>
	</g>
</g>
</svg>
